<svg width="32" height="32" viewBox="0 0 32 32" fill="none" xmlns="http://www.w3.org/2000/svg">
  <defs>
    <linearGradient id="gradient" x1="0%" y1="0%" x2="100%" y2="100%">
      <stop offset="0%" style="stop-color:#667eea;stop-opacity:1" />
      <stop offset="100%" style="stop-color:#764ba2;stop-opacity:1" />
    </linearGradient>
    <filter id="shadow">
      <feDropShadow dx="0" dy="1.5" stdDeviation="1.5" flood-opacity="0.4"/>
    </filter>
  </defs>
  
  <!-- Фон -->
  <rect width="32" height="32" rx="5" fill="url(#gradient)"/>
  
  <!-- Молоток (горизонтальный, слева направо) - максимально крупный -->
  <g filter="url(#shadow)">
    <!-- Рукоятка молотка -->
    <rect x="2" y="15" width="14" height="3" rx="1.5" fill="white" opacity="1"/>
    <!-- Головка молотка (задняя часть) -->
    <rect x="14" y="12" width="5" height="9" rx="1" fill="white" opacity="1"/>
    <!-- Головка молотка (передняя часть - боёк) -->
    <rect x="17" y="10" width="4" height="3" rx="0.5" fill="white" opacity="1"/>
    <!-- Детали головки -->
    <rect x="15" y="11" width="3" height="1" fill="url(#gradient)" opacity="0.2"/>
  </g>
  
  <!-- Отвёртка (вертикальная, снизу вверх) - максимально крупная -->
  <g filter="url(#shadow)">
    <!-- Рукоятка отвёртки -->
    <rect x="19" y="2" width="5" height="10" rx="2" fill="white" opacity="1"/>
    <!-- Детали рукоятки -->
    <rect x="20" y="4" width="3" height="1" fill="url(#gradient)" opacity="0.2"/>
    <rect x="20" y="6" width="3" height="1" fill="url(#gradient)" opacity="0.2"/>
    <!-- Стержень отвёртки -->
    <rect x="20.5" y="12" width="3" height="12" rx="1" fill="white" opacity="1"/>
    <!-- Наконечник отвёртки (плоский) -->
    <path d="M19.5 24 L22.5 24 L23.5 26 L22.5 28 L20.5 28 L19.5 26 Z" fill="white" opacity="1"/>
    <!-- Линия на наконечнике -->
    <line x1="21.5" y1="24" x2="21.5" y2="28" stroke="url(#gradient)" stroke-width="0.5" opacity="0.3"/>
  </g>
  
  <!-- Пересечение - эффект наложения -->
  <ellipse cx="20" cy="16" rx="3" ry="2" fill="url(#gradient)" opacity="0.25"/>
</svg>
